<svg xmlns="http://www.w3.org/2000/svg" width="178" height="37" viewBox="0 0 178 37" version="1.1"><path d="M 136 15.500 L 136 27 138.500 27 L 141 27 141 15.500 L 141 4 138.500 4 L 136 4 136 15.500 M 116 22.500 L 116 35 118.500 35 C 120.794 35, 121 34.632, 121 30.525 C 121 26.104, 121.032 26.062, 123.632 27.050 C 127.005 28.332, 129.436 27.533, 131.974 24.306 C 136.306 18.798, 133.018 10, 126.627 10 C 124.852 10, 122.860 10.540, 122.200 11.200 C 121.267 12.133, 121 12.133, 121 11.200 C 121 10.540, 119.875 10, 118.500 10 L 116 10 116 22.500 M 144.206 17.147 C 144.474 23.652, 144.752 24.481, 147.305 26.383 C 149.990 28.383, 150.237 28.400, 153.055 26.783 C 154.675 25.854, 156 25.522, 156 26.047 C 156 26.571, 157.125 27, 158.500 27 C 160.971 27, 161 26.900, 161 18.500 C 161 10.100, 160.971 10, 158.500 10 C 156.180 10, 156 10.346, 156 14.809 C 156 20.301, 154.248 23.385, 151.434 22.849 C 149.809 22.539, 149.453 21.484, 149.202 16.240 C 148.920 10.333, 148.771 10, 146.408 10 C 143.952 10, 143.917 10.115, 144.206 17.147 M 164.571 11.571 C 163.707 12.436, 163 13.941, 163 14.916 C 163 17.006, 166.026 20, 168.138 20 C 168.952 20, 170.491 20.643, 171.559 21.429 C 173.455 22.824, 173.456 22.874, 171.605 23.591 C 170.341 24.081, 169.306 23.772, 168.495 22.662 C 167.040 20.673, 163 20.440, 163 22.345 C 163 26.404, 171.817 29.056, 175.407 26.078 C 178.889 23.188, 175.774 17, 170.837 17 C 168.682 17, 167.455 15.145, 168.751 13.849 C 169.388 13.212, 170.274 13.417, 171.293 14.436 C 173.029 16.172, 177 16.565, 177 15 C 177 10.882, 167.799 8.344, 164.571 11.571 M 122.046 15.445 C 119.201 18.872, 123.124 24.666, 126.750 22.393 C 130.318 20.156, 129.035 14, 125 14 C 124.035 14, 122.705 14.650, 122.046 15.445" stroke="none" fill="#232323" fill-rule="evenodd"/><path d="M 11 6.500 C 11 9.833, 10.833 10, 7.500 10 L 4 10 4 17.500 L 4 25 7.750 24.999 C 11.417 24.999, 11.500 25.082, 11.500 28.749 L 11.500 32.500 18.750 32.794 L 26 33.088 26 29.044 L 26 25 30.044 25 L 34.088 25 33.794 17.750 L 33.500 10.500 29.750 10.190 C 26.204 9.896, 26 9.692, 26 6.440 L 26 3 18.500 3 L 11 3 11 6.500 M 108.180 5.250 C 108.386 6.696, 109.304 7.614, 110.750 7.820 C 112.582 8.080, 113 7.662, 113 5.570 C 113 3.477, 112.523 3, 110.430 3 C 108.338 3, 107.920 3.418, 108.180 5.250 M 100 8.130 C 100 11.451, 99.733 12.133, 98.800 11.200 C 96.806 9.206, 91.298 9.764, 89.039 12.189 C 86.586 14.822, 86.283 21.531, 88.477 24.663 C 90.544 27.615, 94.659 28.453, 97.606 26.523 C 98.923 25.660, 100 25.414, 100 25.977 C 100 26.540, 101.140 27, 102.533 27 L 105.066 27 104.783 15.750 C 104.511 4.943, 104.411 4.487, 102.250 4.180 C 100.218 3.892, 100 4.275, 100 8.130 M 43 16.500 C 43 26.248, 43.140 27, 44.952 27 C 46.649 27, 46.944 26.181, 47.202 20.750 L 47.500 14.500 49.577 20.500 C 51.287 25.439, 52.090 26.552, 54.117 26.796 C 56.287 27.057, 56.834 26.405, 58.723 21.296 L 60.868 15.500 60.934 21.250 C 60.997 26.699, 61.131 27, 63.500 27 L 66 27 66 16.437 L 66 5.873 62.875 6.187 C 60.008 6.474, 59.544 7.058, 57.265 13.241 C 55.898 16.948, 54.492 19.804, 54.140 19.586 C 53.788 19.368, 52.391 16.222, 51.035 12.595 C 48.807 6.638, 48.300 6, 45.785 6 L 43 6 43 16.500 M 15.769 9.877 C 16.169 12.602, 16.344 12.696, 19.095 11.658 C 23.298 10.071, 23.020 7, 18.673 7 C 15.577 7, 15.376 7.200, 15.769 9.877 M 71.262 11.529 C 66.462 14.891, 67.685 24.124, 73.288 26.809 C 77.688 28.918, 85 25.644, 85 21.566 C 85 20.553, 80.430 20.970, 79.315 22.085 C 77.935 23.465, 73.787 22.895, 73.245 21.250 C 72.946 20.342, 74.497 20, 78.917 20 C 84.926 20, 85 19.966, 85 17.174 C 85 11.229, 76.612 7.782, 71.262 11.529 M 108 18.500 C 108 26.900, 108.029 27, 110.500 27 C 112.971 27, 113 26.900, 113 18.500 C 113 10.100, 112.971 10, 110.500 10 C 108.029 10, 108 10.100, 108 18.500 M 74.040 15.452 C 72.919 16.802, 73.229 17, 76.461 17 C 78.978 17, 80.035 16.599, 79.755 15.750 C 79.138 13.877, 75.504 13.687, 74.040 15.452 M 93.050 15.440 C 92.393 16.231, 92.001 18.144, 92.178 19.690 C 92.574 23.149, 96.637 24.217, 98.694 21.404 C 100.414 19.052, 100.342 17.485, 98.429 15.571 C 96.472 13.614, 94.603 13.569, 93.050 15.440 M 8 18 C 8 20.904, 8.149 21, 12.662 21 C 15.913 21, 18.707 20.190, 21.894 18.322 L 26.463 15.644 24.708 18.322 L 22.954 21 26.477 21 C 29.725 21, 30 20.766, 30 18 C 30 15.004, 29.991 15, 24.077 15 C 19.163 15, 17.629 15.441, 15.077 17.589 C 11.843 20.310, 11.319 20.141, 13.035 16.934 C 13.953 15.219, 13.726 15, 11.035 15 C 8.329 15, 8 15.326, 8 18 M 18.500 23.858 C 14.193 26.215, 14.254 29, 18.611 29 C 21.817 29, 22 28.811, 22 25.500 C 22 23.575, 21.887 22.049, 21.750 22.108 C 21.613 22.168, 20.150 22.955, 18.500 23.858" stroke="none" fill="#1b74d4" fill-rule="evenodd"/></svg>